<svg width="129" height="44" viewBox="0 0 129 44" fill="none" xmlns="http://www.w3.org/2000/svg">
<path d="M0.488007 33L12.296 2.08801H20.648L32.456 33H24.392L21.608 25.992H11.288L8.55201 33H0.488007ZM12.344 20.28H20.552L16.424 9.52801L12.344 20.28Z" fill="#aec1f9"/>
<path d="M40.9404 33.48C38.4444 33.48 36.6524 32.936 35.5644 31.848C34.4764 30.76 33.9324 29.016 33.9324 26.616V0.64801H41.6604V25.848C41.6604 26.584 41.8044 27.096 42.0924 27.384C42.4124 27.64 42.8764 27.768 43.4844 27.768C44.3484 27.768 45.1164 27.656 45.7884 27.432V32.664C45.0524 32.952 44.3164 33.16 43.5804 33.288C42.8764 33.416 41.9964 33.48 40.9404 33.48Z" fill="#aec1f9"/>
<path d="M48.698 33V0.64801H56.426V11.928C57.29 11.288 58.362 10.776 59.642 10.392C60.922 9.97601 62.298 9.76801 63.77 9.76801C66.81 9.76801 69.034 10.488 70.442 11.928C71.882 13.368 72.602 15.576 72.602 18.552V33H64.874V19.08C64.874 17.768 64.602 16.84 64.058 16.296C63.514 15.752 62.538 15.48 61.13 15.48C60.298 15.48 59.45 15.672 58.586 16.056C57.722 16.44 57.002 16.92 56.426 17.496V33H48.698Z" fill="#aec1f9"/>
<path d="M77.2449 43.368V10.248H83.9649L84.3489 12.216C85.2769 11.448 86.3169 10.856 87.4689 10.44C88.6209 9.99201 89.9649 9.76801 91.5009 9.76801C94.7329 9.76801 97.2929 10.648 99.1809 12.408C101.069 14.136 102.013 17.048 102.013 21.144C102.013 25.208 101.037 28.28 99.0849 30.36C97.1649 32.44 94.5089 33.48 91.1169 33.48C88.7169 33.48 86.6689 32.984 84.9729 31.992V43.368H77.2449ZM89.1489 27.816C92.4769 27.816 94.1409 25.544 94.1409 21C94.1409 18.824 93.7569 17.352 92.9889 16.584C92.2209 15.816 90.9889 15.432 89.2929 15.432C87.6609 15.432 86.2209 16.008 84.9729 17.16V26.376C85.5809 26.824 86.1889 27.176 86.7969 27.432C87.4369 27.688 88.2209 27.816 89.1489 27.816Z" fill="#aec1f9"/>
<path d="M115.772 33.48C113.724 33.48 111.804 33.32 110.012 33C108.252 32.712 106.732 32.28 105.452 31.704V25.128C106.86 25.736 108.412 26.232 110.108 26.616C111.836 27 113.468 27.192 115.004 27.192C116.924 27.192 118.348 27.016 119.276 26.664C120.236 26.312 120.716 25.544 120.716 24.36C120.716 23.56 120.476 22.92 119.996 22.44C119.548 21.96 118.796 21.544 117.74 21.192C116.716 20.808 115.308 20.36 113.516 19.848C111.404 19.208 109.724 18.504 108.476 17.736C107.228 16.936 106.332 15.976 105.788 14.856C105.244 13.736 104.972 12.36 104.972 10.728C104.972 7.78401 106.028 5.52801 108.14 3.96001C110.252 2.39201 113.372 1.60801 117.5 1.60801C119.292 1.60801 121.036 1.75201 122.732 2.04001C124.428 2.29601 125.804 2.60001 126.86 2.95201V9.57601C125.484 9.03201 124.092 8.63201 122.684 8.37601C121.308 8.12001 119.964 7.99201 118.652 7.99201C116.924 7.99201 115.516 8.15201 114.428 8.47201C113.372 8.79201 112.844 9.52801 112.844 10.68C112.844 11.352 113.036 11.896 113.42 12.312C113.804 12.696 114.46 13.048 115.388 13.368C116.348 13.688 117.644 14.072 119.276 14.52C121.804 15.192 123.74 16.008 125.084 16.968C126.428 17.896 127.356 18.984 127.868 20.232C128.38 21.448 128.636 22.824 128.636 24.36C128.636 27.08 127.58 29.288 125.468 30.984C123.356 32.648 120.124 33.48 115.772 33.48Z" fill="#aec1f9"/>
</svg>
