<svg width="326" height="34" viewBox="0 0 326 34" fill="none" xmlns="http://www.w3.org/2000/svg">
<path d="M0.488007 33L12.296 2.08799H20.648L32.456 33H24.392L21.608 25.992H11.288L8.55201 33H0.488007ZM12.344 20.28H20.552L16.424 9.528L12.344 20.28Z" fill="#aec1f9"/>
<path d="M36.3699 33V10.248H43.5699L43.8099 12.216C44.7379 11.576 45.9059 11.016 47.3139 10.536C48.7219 10.024 50.2259 9.76799 51.8259 9.76799C54.7699 9.76799 56.9139 10.472 58.2579 11.88C59.6019 13.288 60.2739 15.464 60.2739 18.408V33H52.5459V19.032C52.5459 17.752 52.2739 16.84 51.7299 16.296C51.1859 15.752 50.2099 15.48 48.8019 15.48C47.9699 15.48 47.1219 15.672 46.2579 16.056C45.3939 16.44 44.6739 16.92 44.0979 17.496V33H36.3699Z" fill="#aec1f9"/>
<path d="M74.1875 33.48C71.9795 33.48 70.0915 33.128 68.5235 32.424C66.9555 31.72 65.7555 30.568 64.9235 28.968C64.0915 27.336 63.6755 25.16 63.6755 22.44C63.6755 19.688 64.1555 17.384 65.1155 15.528C66.0755 13.64 67.3875 12.216 69.0515 11.256C70.7475 10.264 72.6835 9.76799 74.8595 9.76799C76.0435 9.76799 77.0995 9.896 78.0275 10.152C78.9875 10.408 79.8835 10.792 80.7155 11.304V0.647995H88.4435V33H81.7715L81.3395 31.08C80.4115 31.88 79.3715 32.488 78.2195 32.904C77.0675 33.288 75.7235 33.48 74.1875 33.48ZM76.3955 27.864C78.0915 27.864 79.5315 27.288 80.7155 26.136V16.92C79.6275 15.928 78.2355 15.432 76.5395 15.432C74.9075 15.432 73.6595 16.056 72.7955 17.304C71.9635 18.52 71.5475 20.248 71.5475 22.488C71.5475 24.664 71.9475 26.104 72.7475 26.808C73.5795 27.512 74.7955 27.864 76.3955 27.864Z" fill="#aec1f9"/>
<path d="M93.323 33V10.248H100.667L100.907 12.36C101.899 11.752 103.131 11.208 104.603 10.728C106.075 10.216 107.547 9.896 109.019 9.76799V15.576C108.187 15.672 107.259 15.832 106.235 16.056C105.243 16.248 104.283 16.488 103.355 16.776C102.459 17.064 101.691 17.368 101.051 17.688V33H93.323Z" fill="#aec1f9"/>
<path d="M123.187 33.48C119.219 33.48 116.035 32.504 113.635 30.552C111.235 28.568 110.035 25.592 110.035 21.624C110.035 18.008 111.027 15.128 113.011 12.984C114.995 10.84 117.971 9.76799 121.939 9.76799C125.555 9.76799 128.355 10.696 130.339 12.552C132.323 14.408 133.315 16.904 133.315 20.04V24.12H117.187C117.539 25.624 118.355 26.68 119.635 27.288C120.947 27.864 122.723 28.152 124.963 28.152C126.211 28.152 127.475 28.04 128.755 27.816C130.067 27.592 131.155 27.304 132.019 26.952V31.992C130.931 32.504 129.635 32.872 128.131 33.096C126.627 33.352 124.979 33.48 123.187 33.48ZM117.187 19.656H126.595V18.648C126.595 17.528 126.259 16.648 125.587 16.008C124.915 15.336 123.779 15 122.179 15C120.323 15 119.027 15.384 118.291 16.152C117.555 16.888 117.187 18.056 117.187 19.656Z" fill="#aec1f9"/>
<path d="M137.245 33V2.08799H144.973V27.048H159.565V33H137.245Z" fill="#aec1f9"/>
<path d="M162.557 33V2.08799H170.285V14.328H182.381V2.08799H190.109V33H182.381V20.76H170.285V33H162.557Z" fill="#aec1f9"/>
<path d="M194.995 33V2.08799H210.211C212.675 2.08799 214.707 2.58399 216.307 3.57599C217.907 4.536 219.091 5.848 219.859 7.512C220.659 9.17599 221.059 11.048 221.059 13.128C221.059 15.24 220.611 17.112 219.715 18.744C218.819 20.376 217.539 21.656 215.875 22.584C214.243 23.48 212.291 23.928 210.019 23.928H202.723V33H194.995ZM202.723 17.976H208.291C209.923 17.976 211.139 17.528 211.939 16.632C212.771 15.736 213.187 14.552 213.187 13.08C213.187 11.48 212.803 10.248 212.035 9.384C211.299 8.48799 210.131 8.03999 208.531 8.03999H202.723V17.976Z" fill="#aec1f9"/>
<path d="M233.944 33.48C231.896 33.48 229.976 33.32 228.184 33C226.424 32.712 224.904 32.28 223.624 31.704V25.128C225.032 25.736 226.584 26.232 228.28 26.616C230.008 27 231.64 27.192 233.176 27.192C235.096 27.192 236.52 27.016 237.448 26.664C238.408 26.312 238.888 25.544 238.888 24.36C238.888 23.56 238.648 22.92 238.168 22.44C237.72 21.96 236.968 21.544 235.912 21.192C234.888 20.808 233.48 20.36 231.688 19.848C229.576 19.208 227.896 18.504 226.648 17.736C225.4 16.936 224.504 15.976 223.96 14.856C223.416 13.736 223.144 12.36 223.144 10.728C223.144 7.78399 224.2 5.52799 226.312 3.96C228.424 2.39199 231.544 1.60799 235.672 1.60799C237.464 1.60799 239.208 1.75199 240.904 2.03999C242.6 2.29599 243.976 2.59999 245.032 2.95199V9.57599C243.656 9.032 242.264 8.632 240.856 8.376C239.48 8.12 238.136 7.99199 236.824 7.99199C235.096 7.99199 233.688 8.15199 232.6 8.47199C231.544 8.79199 231.016 9.52799 231.016 10.68C231.016 11.352 231.208 11.896 231.592 12.312C231.976 12.696 232.632 13.048 233.56 13.368C234.52 13.688 235.816 14.072 237.448 14.52C239.976 15.192 241.912 16.008 243.256 16.968C244.6 17.896 245.528 18.984 246.04 20.232C246.552 21.448 246.808 22.824 246.808 24.36C246.808 27.08 245.752 29.288 243.64 30.984C241.528 32.648 238.296 33.48 233.944 33.48Z" fill="#aec1f9"/>
<path d="M251.047 6.64799V0.839995H259.447V6.64799H251.047ZM251.671 33V15.96H248.311L248.983 10.248H259.398V33H251.671Z" fill="#aec1f9"/>
<path d="M271.331 33.48C268.835 33.48 267.043 32.936 265.955 31.848C264.867 30.76 264.323 29.016 264.323 26.616V0.647995H272.051V25.848C272.051 26.584 272.195 27.096 272.483 27.384C272.803 27.64 273.267 27.768 273.875 27.768C274.739 27.768 275.507 27.656 276.179 27.432V32.664C275.443 32.952 274.707 33.16 273.971 33.288C273.267 33.416 272.387 33.48 271.331 33.48Z" fill="#aec1f9"/>
<path d="M283.964 33L274.988 10.248H283.052L288.044 25.032L293.084 10.248H301.148L292.172 33H283.964Z" fill="#aec1f9"/>
<path d="M310.052 33.48C308.612 33.48 307.268 33.224 306.02 32.712C304.804 32.2 303.828 31.416 303.092 30.36C302.356 29.272 301.988 27.928 301.988 26.328C301.988 23.992 302.772 22.168 304.34 20.856C305.94 19.512 308.324 18.84 311.492 18.84H317.828V18.312C317.828 17.16 317.444 16.344 316.676 15.864C315.908 15.352 314.468 15.096 312.356 15.096C309.764 15.096 307.22 15.496 304.724 16.296V11.304C305.844 10.856 307.204 10.488 308.804 10.2C310.436 9.91199 312.148 9.76799 313.94 9.76799C317.46 9.76799 320.212 10.488 322.196 11.928C324.212 13.368 325.22 15.656 325.22 18.792V33H318.452L318.068 31.08C317.236 31.848 316.164 32.44 314.852 32.856C313.572 33.272 311.972 33.48 310.052 33.48ZM312.5 28.728C313.716 28.728 314.772 28.52 315.668 28.104C316.564 27.688 317.284 27.16 317.828 26.52V23.304H312.356C310.084 23.304 308.948 24.216 308.948 26.04C308.948 26.872 309.236 27.528 309.812 28.008C310.388 28.488 311.284 28.728 312.5 28.728Z" fill="#aec1f9"/>
</svg>
