<svg width="20" height="20" viewBox="0 0 20 20" fill="none" xmlns="http://www.w3.org/2000/svg">
<path d="M4.5 15.5H18.5V1.5H17V7.775C17 7.925 16.9375 8.0375 16.8125 8.1125C16.6875 8.1875 16.5583 8.18333 16.425 8.1L14.675 7.025L12.925 8.1C12.7917 8.18333 12.6625 8.1875 12.5375 8.1125C12.4125 8.0375 12.35 7.925 12.35 7.775V1.5H4.5V15.5ZM4.5 17C4.1 17 3.75 16.85 3.45 16.55C3.15 16.25 3 15.9 3 15.5V1.5C3 1.1 3.15 0.75 3.45 0.45C3.75 0.15 4.1 0 4.5 0H18.5C18.9 0 19.25 0.15 19.55 0.45C19.85 0.75 20 1.1 20 1.5V15.5C20 15.9 19.85 16.25 19.55 16.55C19.25 16.85 18.9 17 18.5 17H4.5ZM1.5 20C1.1 20 0.75 19.85 0.45 19.55C0.15 19.25 0 18.9 0 18.5V3.75C0 3.53333 0.0708334 3.35417 0.2125 3.2125C0.354167 3.07083 0.533333 3 0.75 3C0.966667 3 1.14583 3.07083 1.2875 3.2125C1.42917 3.35417 1.5 3.53333 1.5 3.75V18.5H16.25C16.4667 18.5 16.6458 18.5708 16.7875 18.7125C16.9292 18.8542 17 19.0333 17 19.25C17 19.4667 16.9292 19.6458 16.7875 19.7875C16.6458 19.9292 16.4667 20 16.25 20H1.5ZM12.35 1.5H17H12.35ZM4.5 1.5H18.5H4.5Z" fill="url(#paint0_linear_11_25)"/>
<defs>
<linearGradient id="paint0_linear_11_25" x1="10" y1="0" x2="10" y2="20" gradientUnits="userSpaceOnUse">
<stop stop-color="#0F1761"/>
<stop offset="1" stop-color="#5C73C5"/>
</linearGradient>
</defs>
</svg>
