<svg width="233" height="57" viewBox="0 0 233 57" fill="none" xmlns="http://www.w3.org/2000/svg">
<path d="M2.576 45.872C1.456 45.2747 0.746667 44.6587 0.448 44.024C0.149333 43.3893 0 42.848 0 42.4C0 41.392 0.354667 40.048 1.064 38.368C1.81067 36.6507 2.8 34.6907 4.032 32.488C5.264 30.2853 6.664 27.9893 8.232 25.6C7.07467 25.5253 5.97333 25.4693 4.928 25.432C3.88267 25.3947 2.53867 25.376 0.896 25.376H0C0.522667 24.032 1.344 23.0987 2.464 22.576C3.62133 22.016 4.96533 21.736 6.496 21.736C7.13067 21.736 7.784 21.7733 8.456 21.848C9.16533 21.9227 9.89333 21.9973 10.64 22.072C12.5067 19.384 14.336 16.8453 16.128 14.456C17.9573 12.0667 19.6747 9.91999 21.28 8.01599C22.9227 6.07466 24.3787 4.488 25.648 3.256C27.44 1.46399 28.7467 0.567993 29.568 0.567993C30.0907 0.567993 30.6693 0.773327 31.304 1.184C31.976 1.59466 32.6667 2.11733 33.376 2.752C33.0027 3.05066 32.5173 3.816 31.92 5.048C31.36 6.28 30.744 7.848 30.072 9.752C29.4373 11.6187 28.784 13.672 28.112 15.912C27.4773 18.152 26.8987 20.4293 26.376 22.744C25.8533 25.0587 25.424 27.28 25.088 29.408C24.7893 31.4987 24.64 33.3467 24.64 34.952C24.64 36.4453 24.7893 37.5653 25.088 38.312C25.3867 39.0213 25.8907 39.376 26.6 39.376C27.4587 39.376 28.5227 38.7227 29.792 37.416C31.0613 36.1093 32.48 33.9813 34.048 31.032L35.056 32.096C33.8987 35.1573 32.3867 37.6773 30.52 39.656C28.6907 41.6347 26.7307 42.624 24.64 42.624C22.848 42.624 21.5787 41.8587 20.832 40.328C20.0853 38.76 19.712 36.632 19.712 33.944C19.712 33.0853 19.768 32.1147 19.88 31.032C19.992 29.9493 20.1787 28.6053 20.44 27C18.7973 26.7387 17.3413 26.5333 16.072 26.384C14.8027 26.2347 13.5893 26.0853 12.432 25.936C10.64 29.1093 8.904 32.3947 7.224 35.792C5.544 39.1893 3.99467 42.5493 2.576 45.872ZM21 24.256C21.4853 22.0533 22.0453 19.832 22.68 17.592C23.352 15.3147 24.0427 13.1493 24.752 11.096C25.4987 9.00533 26.2267 7.13866 26.936 5.496C25.816 6.392 24.5653 7.68 23.184 9.36C21.8027 11.04 20.3467 13.0187 18.816 15.296C17.3227 17.5733 15.792 20.056 14.224 22.744C15.344 22.968 16.464 23.2107 17.584 23.472C18.704 23.7333 19.8427 23.9947 21 24.256Z" fill="black"/>
<path d="M51.3564 42.12C49.9004 42.12 48.7804 41.7467 47.9964 41C47.2497 40.2907 46.8764 39.376 46.8764 38.256C46.8764 37.5093 47.007 36.7253 47.2684 35.904C47.5297 35.0453 47.791 34.1867 48.0524 33.328C48.3137 32.4693 48.4444 31.648 48.4444 30.864C48.4444 30.0427 48.239 29.4827 47.8284 29.184C47.455 28.848 47.007 28.68 46.4844 28.68C45.3644 28.68 44.207 29.1467 43.0124 30.08C41.855 30.976 40.7164 32.1147 39.5964 33.496C38.5137 34.8773 37.487 36.3147 36.5164 37.808C35.5457 39.3013 34.7057 40.6453 33.9964 41.84C33.287 41.84 32.615 41.7093 31.9804 41.448C31.3457 41.224 30.8044 40.8133 30.3564 40.216C30.3937 40.0293 30.6177 39.4693 31.0284 38.536C31.4017 37.5653 31.831 36.4267 32.3164 35.12C32.8017 33.776 33.231 32.376 33.6044 30.92C33.9777 29.464 34.1644 28.1387 34.1644 26.944C34.4257 26.6453 34.8177 26.3467 35.3404 26.048C35.9004 25.7493 36.479 25.6 37.0764 25.6C38.383 25.6 39.0364 26.16 39.0364 27.28C39.0364 27.728 38.943 28.4 38.7564 29.296C38.607 30.1547 38.383 31.144 38.0844 32.264C39.055 30.9573 40.119 29.7253 41.2764 28.568C42.4337 27.4107 43.6284 26.4773 44.8604 25.768C46.1297 25.0213 47.399 24.648 48.6684 24.648C50.2737 24.648 51.4497 25.1893 52.1964 26.272C52.9804 27.3547 53.3724 28.5493 53.3724 29.856C53.3724 30.976 53.1857 32.0213 52.8124 32.992C52.439 33.9627 52.0657 34.8773 51.6924 35.736C51.3564 36.5947 51.1884 37.4347 51.1884 38.256C51.1884 38.8533 51.319 39.2827 51.5804 39.544C51.879 39.768 52.1964 39.88 52.5324 39.88C53.4284 39.88 54.3617 39.4507 55.3324 38.592C56.303 37.7333 57.2177 36.6507 58.0764 35.344C58.9724 34 59.7564 32.656 60.4284 31.312L61.3804 32.096C60.5964 33.9253 59.7004 35.6053 58.6924 37.136C57.7217 38.6293 56.6204 39.8427 55.3884 40.776C54.1937 41.672 52.8497 42.12 51.3564 42.12Z" fill="black"/>
<path d="M62.8171 42.68C62.1078 42.68 61.3798 42.4933 60.6331 42.12C59.9238 41.784 59.3265 41.2427 58.8411 40.496C58.3185 39.7493 58.0571 38.7973 58.0571 37.64C58.0571 36.408 58.3558 35.0267 58.9531 33.496C59.5505 31.9653 60.3531 30.4347 61.3611 28.904C62.4065 27.3733 63.6011 25.9733 64.9451 24.704C66.3265 23.4347 67.7825 22.408 69.3131 21.624C70.8438 20.84 72.3931 20.448 73.9611 20.448C74.8198 20.448 75.4918 20.5973 75.9771 20.896C76.4625 21.1573 76.7051 21.6053 76.7051 22.24C76.7051 22.4267 76.6678 22.6507 76.5931 22.912C76.5185 23.136 76.3318 23.3413 76.0331 23.528C75.8838 23.304 75.6225 23.1547 75.2491 23.08C74.8758 22.968 74.4838 22.912 74.0731 22.912C72.8411 22.912 71.6651 23.2667 70.5451 23.976C69.4251 24.648 68.3985 25.5253 67.4651 26.608C66.5318 27.6907 65.7105 28.8667 65.0011 30.136C64.3291 31.4053 63.8065 32.6373 63.4331 33.832C63.0598 34.9893 62.8731 35.9973 62.8731 36.856C62.8731 37.5653 63.0225 38.144 63.3211 38.592C63.6198 39.0027 64.0678 39.208 64.6651 39.208C65.6731 39.208 66.8678 38.6293 68.2491 37.472C69.6678 36.2773 71.1051 34.5787 72.5611 32.376C74.0545 30.136 75.3985 27.4667 76.5931 24.368C77.4145 22.24 78.2731 20.0747 79.1691 17.872C80.0651 15.632 80.9611 13.4853 81.8571 11.432C82.7531 9.37866 83.6305 7.54933 84.4891 5.94399C85.3851 4.33866 86.2251 3.06933 87.0091 2.136C87.8305 1.16533 88.5771 0.679995 89.2491 0.679995C89.6598 0.679995 90.0145 0.847995 90.3131 1.184C90.6491 1.48266 90.8171 1.87466 90.8171 2.35999C90.8171 2.99466 90.4998 4.02133 89.8651 5.43999C89.2678 6.82133 88.4838 8.48266 87.5131 10.424C86.5798 12.3653 85.5531 14.4747 84.4331 16.752C83.3505 18.992 82.3238 21.3067 81.3531 23.696C80.4198 26.048 79.6358 28.3813 79.0011 30.696C78.4038 32.9733 78.1051 35.12 78.1051 37.136C78.1051 38.032 78.1798 38.648 78.3291 38.984C78.5158 39.2827 78.8145 39.432 79.2251 39.432C80.0465 39.432 80.9611 39.1147 81.9691 38.48C82.9771 37.8453 84.0038 36.912 85.0491 35.68C86.0945 34.4107 87.0465 32.8987 87.9051 31.144L88.9691 32.04C88.1478 34.0933 87.1025 35.904 85.8331 37.472C84.5638 39.04 83.2011 40.2533 81.7451 41.112C80.2891 42.008 78.8518 42.456 77.4331 42.456C75.9025 42.456 74.8385 41.9707 74.2411 41C73.6438 40.0293 73.3451 38.8907 73.3451 37.584C73.3451 36.9867 73.3825 36.3893 73.4571 35.792C73.5691 35.1573 73.6811 34.5413 73.7931 33.944C72.6358 35.624 71.4038 37.136 70.0971 38.48C68.8278 39.7867 67.5771 40.8133 66.3451 41.56C65.1131 42.3067 63.9371 42.68 62.8171 42.68Z" fill="black"/>
<path d="M96.8209 42.456C95.4396 42.456 94.3196 42.0827 93.4609 41.336C92.6023 40.6267 92.1729 39.656 92.1729 38.424C92.1729 37.3787 92.4343 36.2587 92.9569 35.064C93.4796 33.8693 94.0023 32.6933 94.5249 31.536C95.0849 30.3787 95.3649 29.352 95.3649 28.456C95.3649 27.5973 95.0849 26.888 94.5249 26.328C93.9649 25.7307 93.3116 25.2453 92.5649 24.872C91.7436 26.9253 90.8103 28.9227 89.7649 30.864C88.7569 32.768 87.9356 34.2613 87.3009 35.344L86.4609 33.72C86.9836 32.7493 87.6743 31.368 88.5329 29.576C89.3916 27.784 90.2129 25.7867 90.9969 23.584C90.6236 23.2107 90.4369 22.7067 90.4369 22.072C90.4369 21.1013 90.7356 20.1867 91.3329 19.328C91.9303 18.4693 92.5089 18.04 93.0689 18.04C93.5169 18.04 93.8343 18.3013 94.0209 18.824C94.2449 19.3093 94.3569 19.6453 94.3569 19.832C94.3569 20.0187 94.2636 20.3547 94.0769 20.84C93.9276 21.3253 93.8156 21.68 93.7409 21.904C93.7783 22.3147 94.0956 22.7253 94.6929 23.136C95.3276 23.5093 96.0369 23.9573 96.8209 24.48C97.6049 25.0027 98.2956 25.656 98.8929 26.44C99.4903 27.224 99.7889 28.2133 99.7889 29.408C99.7889 30.4907 99.5463 31.592 99.0609 32.712C98.5756 33.832 98.0903 34.8773 97.6049 35.848C97.1196 36.8187 96.8769 37.6587 96.8769 38.368C96.8769 38.8907 97.0076 39.2453 97.2689 39.432C97.5676 39.5813 97.9036 39.656 98.2769 39.656C99.1729 39.656 100.106 39.3947 101.077 38.872C102.048 38.312 103 37.6027 103.933 36.744C104.866 35.8853 105.688 34.9893 106.397 34.056C107.106 33.0853 107.648 32.208 108.021 31.424L109.365 32.432C108.656 34.0373 107.629 35.624 106.285 37.192C104.941 38.7227 103.448 39.992 101.805 41C100.162 41.9707 98.5009 42.456 96.8209 42.456Z" fill="black"/>
<path d="M113.301 43.464C110.911 43.464 109.063 42.8107 107.757 41.504C106.487 40.2347 105.853 38.6293 105.853 36.688C105.853 35.0453 106.263 33.3093 107.085 31.48C107.943 29.6133 109.082 27.8773 110.501 26.272C111.919 24.6293 113.487 23.304 115.205 22.296C116.922 21.288 118.639 20.784 120.357 20.784C121.327 20.784 122.242 21.0453 123.101 21.568C123.997 22.0533 124.445 23.0427 124.445 24.536C124.445 25.9547 124.034 27.28 123.213 28.512C122.391 29.744 121.29 30.8453 119.909 31.816C118.527 32.7867 116.997 33.5893 115.317 34.224C113.674 34.8213 112.013 35.2133 110.333 35.4C110.295 35.5493 110.258 35.7173 110.221 35.904C110.221 36.0533 110.221 36.3147 110.221 36.688C110.221 36.8747 110.239 37.2107 110.277 37.696C110.351 38.144 110.519 38.6293 110.781 39.152C111.042 39.6747 111.471 40.1227 112.069 40.496C112.666 40.8693 113.487 41.056 114.533 41.056C116.101 41.056 117.669 40.6267 119.237 39.768C120.842 38.872 122.335 37.696 123.717 36.24C125.135 34.784 126.311 33.16 127.245 31.368L128.365 32.264C127.357 34.504 126.05 36.464 124.445 38.144C122.877 39.824 121.122 41.1307 119.181 42.064C117.277 42.9973 115.317 43.464 113.301 43.464ZM110.949 33.328C111.919 33.216 113.002 32.88 114.197 32.32C115.391 31.76 116.53 31.0507 117.613 30.192C118.733 29.3333 119.647 28.4 120.357 27.392C121.066 26.3467 121.421 25.3013 121.421 24.256C121.421 23.8453 121.346 23.5653 121.197 23.416C121.047 23.2667 120.805 23.192 120.469 23.192C119.61 23.192 118.714 23.5093 117.781 24.144C116.847 24.7413 115.933 25.544 115.037 26.552C114.141 27.5227 113.338 28.6053 112.629 29.8C111.919 30.9947 111.359 32.1707 110.949 33.328Z" fill="black"/>
<path d="M164.91 45.872C163.528 45.872 161.979 45.592 160.262 45.032C158.544 44.472 156.771 43.8 154.941 43.016C153.149 42.232 151.395 41.4853 149.678 40.776C148.744 41.784 147.736 42.568 146.654 43.128C145.571 43.688 144.414 43.968 143.182 43.968C141.875 43.968 140.755 43.6693 139.822 43.072C138.851 42.512 138.123 41.8213 137.637 41C137.115 40.1787 136.854 39.432 136.854 38.76C136.854 38.0133 137.189 37.36 137.861 36.8C138.533 36.24 139.728 35.96 141.445 35.96C142.453 35.96 143.555 36.072 144.749 36.296C145.981 36.4827 147.232 36.744 148.501 37.08C149.36 35.5867 150.144 33.832 150.854 31.816C151.6 29.8 152.328 27.6907 153.038 25.488C153.747 23.248 154.456 21.064 155.165 18.936C153.299 18.3013 151.862 17.424 150.854 16.304C149.846 15.1467 149.342 13.9893 149.342 12.832C149.342 12.0853 149.528 11.3573 149.902 10.648C150.275 9.90133 150.816 9.28533 151.525 8.79999C152.235 8.27733 153.075 8.01599 154.046 8.01599C153.56 8.61333 153.243 9.28533 153.094 10.032C152.982 10.7787 152.926 11.376 152.926 11.824C152.926 13.056 153.206 14.1013 153.766 14.96C154.326 15.8187 155.016 16.4907 155.837 16.976C156.547 14.848 157.293 12.8133 158.077 10.872C158.899 8.89333 159.795 7.15733 160.766 5.66399C161.774 4.13333 162.875 2.91999 164.07 2.02399C165.302 1.12799 166.683 0.679995 168.214 0.679995C169.072 0.679995 169.968 0.866662 170.902 1.23999C171.872 1.57599 172.693 2.17333 173.365 3.03199C174.075 3.89066 174.43 5.12266 174.43 6.72799C174.43 7.99733 174.15 9.36 173.59 10.816C173.067 12.272 172.227 13.672 171.07 15.016C169.912 16.3227 168.419 17.424 166.59 18.32C164.798 19.1787 162.614 19.6453 160.038 19.72C159.963 19.72 159.87 19.72 159.758 19.72C159.683 19.72 159.608 19.72 159.534 19.72C158.824 21.8853 158.078 24.0693 157.294 26.272C156.51 28.4747 155.669 30.584 154.773 32.6C153.877 34.616 152.907 36.408 151.861 37.976C153.317 38.3867 154.923 38.8533 156.678 39.376C158.47 39.8987 160.243 40.3467 161.997 40.72C163.789 41.056 165.358 41.224 166.702 41.224C167.598 41.224 168.419 41.1307 169.165 40.944C169.949 40.72 170.771 40.4027 171.63 39.992C170.883 42.0827 169.949 43.576 168.829 44.472C167.747 45.4053 166.44 45.872 164.91 45.872ZM142.622 41.896C143.592 41.896 144.376 41.672 144.973 41.224C145.571 40.8133 146.168 40.2907 146.766 39.656C145.608 39.2453 144.526 38.9093 143.518 38.648C142.51 38.3493 141.632 38.2 140.885 38.2C140.176 38.2 139.672 38.3307 139.374 38.592C139.038 38.8533 138.87 39.1707 138.87 39.544C138.87 40.1413 139.243 40.6827 139.99 41.168C140.736 41.6533 141.614 41.896 142.622 41.896ZM160.15 17.872C161.792 17.76 163.248 17.2373 164.518 16.304C165.787 15.3707 166.87 14.2507 167.766 12.944C168.662 11.6373 169.334 10.312 169.782 8.96799C170.267 7.58666 170.51 6.39199 170.51 5.38399C170.51 4.41333 170.323 3.75999 169.949 3.424C169.576 3.05066 169.147 2.86399 168.661 2.86399C167.579 2.86399 166.552 3.55466 165.581 4.93599C164.611 6.31733 163.677 8.14666 162.781 10.424C161.923 12.664 161.046 15.1467 160.15 17.872Z" fill="black"/>
<path d="M178.053 42.68C176.784 42.68 175.738 42.1013 174.917 40.944C174.133 39.7493 173.741 38.3867 173.741 36.856C173.741 35.8107 173.909 34.5787 174.245 33.16C174.581 31.7413 175.01 30.36 175.533 29.016C176.093 27.672 176.653 26.552 177.213 25.656C177.81 24.76 178.352 24.312 178.837 24.312C179.098 24.312 179.49 24.4613 180.013 24.76C180.573 25.0213 181.058 25.3573 181.469 25.768C181.058 26.3653 180.554 27.28 179.957 28.512C179.397 29.744 178.893 31.0693 178.445 32.488C177.997 33.9067 177.773 35.1947 177.773 36.352C177.773 36.5013 177.792 36.856 177.829 37.416C177.904 37.976 178.053 38.4987 178.277 38.984C178.501 39.4693 178.893 39.712 179.453 39.712C180.088 39.712 180.76 39.376 181.469 38.704C182.216 37.9947 182.962 37.0987 183.709 36.016C184.493 34.896 185.24 33.7013 185.949 32.432C186.696 31.1627 187.349 29.9307 187.909 28.736C188.506 27.5413 188.992 26.5333 189.365 25.712C189.701 25.7493 190.13 25.8427 190.653 25.992C191.213 26.1413 191.698 26.3467 192.109 26.608C192.52 26.832 192.725 27.168 192.725 27.616C192.725 27.728 192.538 28.1947 192.165 29.016C191.829 29.8 191.418 30.752 190.933 31.872C190.485 32.992 190.074 34.1493 189.701 35.344C189.365 36.5013 189.197 37.528 189.197 38.424C189.197 38.9467 189.29 39.4133 189.477 39.824C189.701 40.1973 190.112 40.384 190.709 40.384C191.493 40.384 192.426 40.0293 193.509 39.32C194.592 38.6107 195.712 37.584 196.869 36.24C198.026 34.896 199.053 33.2907 199.949 31.424L200.789 32.096C199.968 34.112 198.904 35.9227 197.597 37.528C196.29 39.1333 194.89 40.384 193.397 41.28C191.904 42.2133 190.448 42.68 189.029 42.68C187.946 42.68 187.125 42.4187 186.565 41.896C186.042 41.4107 185.688 40.776 185.501 39.992C185.314 39.1707 185.202 38.3493 185.165 37.528C185.165 37.3413 185.165 37.1547 185.165 36.968C185.165 36.744 185.165 36.5573 185.165 36.408C184.53 37.416 183.84 38.4053 183.093 39.376C182.346 40.3093 181.544 41.0933 180.685 41.728C179.864 42.3627 178.986 42.68 178.053 42.68Z" fill="black"/>
<path d="M202.996 42.68C201.353 42.68 200.121 42.1947 199.3 41.224C198.478 40.2533 198.068 39.0773 198.068 37.696C198.068 36.8373 198.217 35.7547 198.516 34.448C198.814 33.1413 199.225 31.7787 199.748 30.36C200.308 28.904 200.942 27.5413 201.652 26.272C202.361 25.0027 203.126 23.976 203.948 23.192C204.769 22.3707 205.59 21.96 206.412 21.96C206.86 21.96 207.252 22.1093 207.588 22.408C207.924 22.6693 208.092 23.0613 208.092 23.584C208.092 24.0693 207.793 24.7973 207.196 25.768C206.636 26.7387 205.964 27.8587 205.18 29.128C204.433 30.3973 203.761 31.7227 203.164 33.104C202.604 34.448 202.324 35.736 202.324 36.968C202.324 38.1627 202.529 38.9653 202.94 39.376C203.388 39.7493 204.022 39.936 204.844 39.936C206.113 39.936 207.494 39.3013 208.988 38.032C210.481 36.7627 212.03 34.5413 213.636 31.368L214.476 32.264C213.169 35.5493 211.508 38.1067 209.492 39.936C207.476 41.7653 205.31 42.68 202.996 42.68ZM209.604 17.424C208.894 17.424 208.241 17.256 207.644 16.92C207.084 16.5467 206.804 15.9867 206.804 15.24C206.804 14.344 207.289 13.5787 208.26 12.944C209.23 12.3093 210.238 11.992 211.284 11.992C211.956 11.992 212.516 12.1413 212.964 12.44C213.449 12.7387 213.692 13.28 213.692 14.064C213.692 14.848 213.262 15.6133 212.404 16.36C211.545 17.0693 210.612 17.424 209.604 17.424Z" fill="black"/>
<path d="M212.635 56.68C211.329 56.68 210.302 56.4187 209.555 55.896C208.771 55.4107 208.38 54.5893 208.38 53.432C208.38 52.1627 208.79 51.024 209.611 50.016C210.395 49.008 211.459 48.056 212.803 47.16C214.185 46.264 215.697 45.3493 217.34 44.416C219.02 43.4827 220.7 42.456 222.38 41.336C222.342 40.1413 221.969 39.0027 221.26 37.92C220.588 36.8373 219.393 35.68 217.676 34.448C219.132 34.0373 220.364 33.4027 221.372 32.544C222.38 31.648 223.145 30.6773 223.667 29.632C224.19 28.5493 224.452 27.5413 224.452 26.608C224.452 25.936 224.283 25.3387 223.947 24.816C223.611 24.256 223.014 23.976 222.156 23.976C221.036 23.976 219.99 24.4613 219.02 25.432C218.049 26.4027 217.115 27.6533 216.219 29.184C215.361 30.7147 214.521 32.3573 213.699 34.112L212.635 33.216C213.457 31.0133 214.316 29.016 215.212 27.224C216.145 25.3947 217.228 23.9387 218.46 22.856C219.729 21.7733 221.241 21.232 222.995 21.232C224.526 21.232 225.833 21.6613 226.915 22.52C227.998 23.3787 228.54 24.6293 228.54 26.272C228.54 27.4293 228.241 28.568 227.643 29.688C227.083 30.7707 226.318 31.7787 225.348 32.712C224.414 33.608 223.369 34.3547 222.212 34.952C223.033 35.5867 223.742 36.3147 224.34 37.136C224.974 37.9573 225.478 38.76 225.852 39.544C227.196 38.4987 228.409 37.3413 229.492 36.072C230.574 34.8027 231.433 33.3467 232.068 31.704L232.796 32.6C232.236 34.2427 231.395 35.792 230.275 37.248C229.193 38.6667 227.905 39.9173 226.411 41C226.486 41.2613 226.542 41.5227 226.579 41.784C226.617 42.0827 226.635 42.4373 226.635 42.848C226.635 44.4907 226.262 46.1147 225.516 47.72C224.769 49.3627 223.724 50.856 222.38 52.2C221.073 53.544 219.58 54.6267 217.9 55.448C216.257 56.2693 214.502 56.68 212.635 56.68ZM211.852 54.552C212.524 54.552 213.382 54.2907 214.428 53.768C215.51 53.2827 216.593 52.5547 217.676 51.584C218.796 50.6507 219.766 49.512 220.587 48.168C221.446 46.824 222.006 45.2933 222.268 43.576C220.886 44.472 219.486 45.312 218.068 46.096C216.649 46.88 215.361 47.6453 214.204 48.392C213.046 49.176 212.113 49.9413 211.404 50.688C210.694 51.4347 210.339 52.2187 210.339 53.04C210.339 53.5627 210.489 53.936 210.788 54.16C211.086 54.4213 211.441 54.552 211.852 54.552Z" fill="black"/>
</svg>
