<svg width="24" height="24" viewBox="0 0 24 24" fill="none" xmlns="http://www.w3.org/2000/svg">
<g clip-path="url(#clip0_11_46)">
<path d="M17.7588 13.7907C17.712 13.7682 15.9623 12.9067 15.6514 12.7948C15.5245 12.7492 15.3885 12.7047 15.2439 12.7047C15.0076 12.7047 14.8092 12.8224 14.6546 13.0537C14.4798 13.3135 13.9507 13.932 13.7872 14.1167C13.7659 14.1411 13.7367 14.1702 13.7193 14.1702C13.7036 14.1702 13.4328 14.0587 13.3509 14.0231C11.4739 13.2078 10.0493 11.2472 9.85395 10.9166C9.82605 10.8691 9.82488 10.8475 9.82465 10.8475C9.83151 10.8223 9.89462 10.7591 9.92719 10.7264C10.0225 10.6321 10.1257 10.5078 10.2256 10.3876C10.2729 10.3306 10.3203 10.2736 10.3668 10.2198C10.5118 10.0512 10.5763 9.9203 10.6511 9.76866L10.6903 9.68988C10.8729 9.327 10.7169 9.02077 10.6665 8.92188C10.6251 8.83913 9.88636 7.05612 9.80782 6.86879C9.61893 6.41677 9.36935 6.2063 9.02252 6.2063C8.99034 6.2063 9.02252 6.2063 8.88756 6.21199C8.72322 6.21892 7.82829 6.33674 7.4326 6.58617C7.01299 6.85071 6.30312 7.69399 6.30312 9.177C6.30312 10.5117 7.15013 11.772 7.51379 12.2513C7.52283 12.2633 7.53943 12.2879 7.56351 12.3231C8.95621 14.357 10.6924 15.8643 12.4524 16.5674C14.1468 17.2443 14.9492 17.3225 15.4053 17.3225C15.4054 17.3225 15.4054 17.3225 15.4054 17.3225C15.5971 17.3225 15.7505 17.3075 15.8859 17.2941L15.9718 17.286C16.5571 17.2341 17.8435 16.5675 18.1361 15.7544C18.3665 15.114 18.4273 14.4142 18.274 14.1603C18.1689 13.9876 17.9879 13.9007 17.7588 13.7907Z" fill="url(#paint0_linear_11_46)"/>
<path d="M12.2133 0C5.71331 0 0.425202 5.24836 0.425202 11.6995C0.425202 13.786 0.983591 15.8284 2.04138 17.6159L0.0167341 23.5883C-0.0209802 23.6996 0.00707174 23.8227 0.0894354 23.9066C0.14889 23.9673 0.229539 24 0.311903 24C0.343461 24 0.375254 23.9952 0.406267 23.9854L6.6338 22.0064C8.33795 22.917 10.264 23.3976 12.2133 23.3976C18.7127 23.3977 24.0002 18.1498 24.0002 11.6995C24.0002 5.24836 18.7127 0 12.2133 0ZM12.2133 20.9606C10.379 20.9606 8.6025 20.4309 7.07538 19.4289C7.02403 19.3951 6.96442 19.3778 6.90442 19.3778C6.87271 19.3778 6.84092 19.3826 6.80998 19.3925L3.69037 20.3841L4.69744 17.413C4.73001 17.3169 4.71372 17.2108 4.65372 17.1288C3.49081 15.5398 2.87608 13.6625 2.87608 11.6995C2.87608 6.59221 7.06471 2.43709 12.2132 2.43709C17.361 2.43709 21.5492 6.59221 21.5492 11.6995C21.5493 16.8061 17.3612 20.9606 12.2133 20.9606Z" fill="url(#paint1_linear_11_46)"/>
</g>
<defs>
<linearGradient id="paint0_linear_11_46" x1="12.3308" y1="6.2063" x2="12.3308" y2="17.3225" gradientUnits="userSpaceOnUse">
<stop stop-color="#0F1761"/>
<stop offset="1" stop-color="#5C73C5"/>
</linearGradient>
<linearGradient id="paint1_linear_11_46" x1="12.0002" y1="0" x2="12.0002" y2="24" gradientUnits="userSpaceOnUse">
<stop stop-color="#0F1761"/>
<stop offset="1" stop-color="#5C73C5"/>
</linearGradient>
<clipPath id="clip0_11_46">
<rect width="24" height="24" fill="white"/>
</clipPath>
</defs>
</svg>
